<svg width="31" height="30" viewBox="0 0 31 30" fill="none" xmlns="http://www.w3.org/2000/svg">
<path d="M15.4297 2.5C8.52969 2.5 2.92969 8.1 2.92969 15C2.92969 21.9 8.52969 27.5 15.4297 27.5C22.3297 27.5 27.9297 21.9 27.9297 15C27.9297 8.1 22.3297 2.5 15.4297 2.5ZM15.4297 7.5C17.8422 7.5 19.8047 9.4625 19.8047 11.875C19.8047 14.2875 17.8422 16.25 15.4297 16.25C13.0172 16.25 11.0547 14.2875 11.0547 11.875C11.0547 9.4625 13.0172 7.5 15.4297 7.5ZM15.4297 25C12.8922 25 9.89219 23.975 7.75469 21.4C9.94447 19.6828 12.6469 18.7495 15.4297 18.7495C18.2125 18.7495 20.9149 19.6828 23.1047 21.4C20.9672 23.975 17.9672 25 15.4297 25Z" fill="#1E5F00"/>
</svg>
