<svg width="31" height="30" viewBox="0 0 31 30" fill="none" xmlns="http://www.w3.org/2000/svg">
<path d="M26.6797 23.75V25H4.17969V23.75L6.67969 21.25V13.75C6.67969 9.875 9.21719 6.4625 12.9297 5.3625V5C12.9297 4.33696 13.1931 3.70107 13.6619 3.23223C14.1308 2.76339 14.7666 2.5 15.4297 2.5C16.0927 2.5 16.7286 2.76339 17.1975 3.23223C17.6663 3.70107 17.9297 4.33696 17.9297 5V5.3625C21.6422 6.4625 24.1797 9.875 24.1797 13.75V21.25L26.6797 23.75ZM17.9297 26.25C17.9297 26.913 17.6663 27.5489 17.1975 28.0178C16.7286 28.4866 16.0927 28.75 15.4297 28.75C14.7666 28.75 14.1308 28.4866 13.6619 28.0178C13.1931 27.5489 12.9297 26.913 12.9297 26.25" fill="#1E5F00"/>
</svg>
