<svg width="31" height="30" viewBox="0 0 31 30" fill="none" xmlns="http://www.w3.org/2000/svg">
<path d="M21.6797 22.5C20.2922 22.5 19.1797 23.6125 19.1797 25C19.1797 25.663 19.4431 26.2989 19.9119 26.7678C20.3808 27.2366 21.0166 27.5 21.6797 27.5C22.3427 27.5 22.9786 27.2366 23.4475 26.7678C23.9163 26.2989 24.1797 25.663 24.1797 25C24.1797 24.337 23.9163 23.7011 23.4475 23.2322C22.9786 22.7634 22.3427 22.5 21.6797 22.5ZM1.67969 2.5V5H4.17969L8.67969 14.4875L6.97969 17.55C6.79219 17.9 6.67969 18.3125 6.67969 18.75C6.67969 19.413 6.94308 20.0489 7.41192 20.5178C7.88076 20.9866 8.51665 21.25 9.17969 21.25H24.1797V18.75H9.70469C9.62181 18.75 9.54232 18.7171 9.48372 18.6585C9.42511 18.5999 9.39219 18.5204 9.39219 18.4375C9.39219 18.375 9.40469 18.325 9.42969 18.2875L10.5547 16.25H19.8672C20.8047 16.25 21.6297 15.725 22.0547 14.9625L26.5297 6.875C26.6172 6.675 26.6797 6.4625 26.6797 6.25C26.6797 5.91848 26.548 5.60054 26.3136 5.36612C26.0792 5.1317 25.7612 5 25.4297 5H6.94219L5.76719 2.5M9.17969 22.5C7.79219 22.5 6.67969 23.6125 6.67969 25C6.67969 25.663 6.94308 26.2989 7.41192 26.7678C7.88076 27.2366 8.51665 27.5 9.17969 27.5C9.84273 27.5 10.4786 27.2366 10.9475 26.7678C11.4163 26.2989 11.6797 25.663 11.6797 25C11.6797 24.337 11.4163 23.7011 10.9475 23.2322C10.4786 22.7634 9.84273 22.5 9.17969 22.5Z" fill="#1E5F00"/>
</svg>
