<svg width="31" height="30" viewBox="0 0 31 30" fill="none" xmlns="http://www.w3.org/2000/svg">
<path d="M22.9297 23.125C22.4324 23.125 21.9555 22.9275 21.6039 22.5758C21.2522 22.2242 21.0547 21.7473 21.0547 21.25C21.0547 20.7527 21.2522 20.2758 21.6039 19.9242C21.9555 19.5725 22.4324 19.375 22.9297 19.375C23.427 19.375 23.9039 19.5725 24.2555 19.9242C24.6071 20.2758 24.8047 20.7527 24.8047 21.25C24.8047 21.7473 24.6071 22.2242 24.2555 22.5758C23.9039 22.9275 23.427 23.125 22.9297 23.125ZM24.8047 11.875L27.2547 15H21.6797V11.875M7.92969 23.125C7.43241 23.125 6.95549 22.9275 6.60386 22.5758C6.25223 22.2242 6.05469 21.7473 6.05469 21.25C6.05469 20.7527 6.25223 20.2758 6.60386 19.9242C6.95549 19.5725 7.43241 19.375 7.92969 19.375C8.42697 19.375 8.90388 19.5725 9.25551 19.9242C9.60714 20.2758 9.80469 20.7527 9.80469 21.25C9.80469 21.7473 9.60714 22.2242 9.25551 22.5758C8.90388 22.9275 8.42697 23.125 7.92969 23.125ZM25.4297 10H21.6797V5H4.17969C2.79219 5 1.67969 6.1125 1.67969 7.5V21.25H4.17969C4.17969 22.2446 4.57478 23.1984 5.27804 23.9017C5.9813 24.6049 6.93513 25 7.92969 25C8.92425 25 9.87808 24.6049 10.5813 23.9017C11.2846 23.1984 11.6797 22.2446 11.6797 21.25H19.1797C19.1797 22.2446 19.5748 23.1984 20.278 23.9017C20.9813 24.6049 21.9351 25 22.9297 25C23.9242 25 24.8781 24.6049 25.5813 23.9017C26.2846 23.1984 26.6797 22.2446 26.6797 21.25H29.1797V15L25.4297 10Z" fill="#1E5F00"/>
</svg>
