<svg width="31" height="30" viewBox="0 0 31 30" fill="none" xmlns="http://www.w3.org/2000/svg">
<path fill-rule="evenodd" clip-rule="evenodd" d="M15.4297 18.333C15.4297 17.0069 15.9565 15.7352 16.8942 14.7975C17.8318 13.8598 19.1036 13.333 20.4297 13.333H27.0964C27.9804 13.333 28.8283 13.6842 29.4534 14.3093C30.0785 14.9344 30.4297 15.7823 30.4297 16.6663V19.9997C30.4297 20.8837 30.0785 21.7316 29.4534 22.3567C28.8283 22.9818 27.9804 23.333 27.0964 23.333H20.4297C19.1036 23.333 17.8318 22.8062 16.8942 21.8685C15.9565 20.9309 15.4297 19.6591 15.4297 18.333ZM20.4297 16.6663C19.9877 16.6663 19.5637 16.8419 19.2512 17.1545C18.9386 17.4671 18.763 17.891 18.763 18.333C18.763 18.775 18.9386 19.199 19.2512 19.5115C19.5637 19.8241 19.9877 19.9997 20.4297 19.9997H27.0964V16.6663H20.4297Z" fill="#1E5F00"/>
<path fill-rule="evenodd" clip-rule="evenodd" d="M15.918 0.487977C16.2306 0.175525 16.6544 0 17.0964 0C17.5383 0 17.9621 0.175525 18.2747 0.487977L22.7864 4.99964H18.073L15.918 2.84464C15.6056 2.5321 15.43 2.10825 15.43 1.66631C15.43 1.22437 15.6056 0.800523 15.918 0.487977ZM16.1197 4.99964L11.608 0.487977C11.2955 0.175525 10.8716 0 10.4297 0C9.98775 0 9.5639 0.175525 9.25136 0.487977L4.73969 4.99964H16.1197ZM3.07302 6.66631L2.97969 6.75798C2.25253 6.93378 1.60566 7.34908 1.14313 7.93707C0.6806 8.52506 0.42931 9.25154 0.429688 9.99964V26.6663C0.429688 27.5504 0.780877 28.3982 1.406 29.0233C2.03112 29.6485 2.87897 29.9996 3.76302 29.9996H23.763C24.6471 29.9996 25.4949 29.6485 26.12 29.0233C26.7452 28.3982 27.0964 27.5504 27.0964 26.6663H20.4297C18.2195 26.6663 16.0999 25.7883 14.5371 24.2255C12.9743 22.6627 12.0964 20.5431 12.0964 18.333C12.0964 16.1228 12.9743 14.0032 14.5371 12.4404C16.0999 10.8776 18.2195 9.99964 20.4297 9.99964H27.0964C27.0967 9.25154 26.8454 8.52506 26.3829 7.93707C25.9204 7.34908 25.2735 6.93378 24.5464 6.75798L24.453 6.66631H3.07302Z" fill="#1E5F00"/>
</svg>
