<svg width="149" height="65" viewBox="0 0 149 65" fill="none" xmlns="http://www.w3.org/2000/svg">
<path d="M143.66 8.59766C143.66 4.17938 140.078 0.597656 135.66 0.597656H8.82958C4.41131 0.597656 0.82959 4.17938 0.82959 8.59766V56.234C0.82959 60.6523 4.41131 64.234 8.82959 64.234H135.66C140.078 64.234 143.66 60.6523 143.66 56.234V8.59766Z" fill="#44D813" fill-opacity="0.7"/>
<path d="M76.5312 5.20703V28.0039H72.0312V10.3945L66.625 12.1133V8.56641L76.0469 5.20703H76.5312ZM88.6719 17.6445L85.0781 16.7852L86.375 5.25391H99.1562V8.89453H90.0781L89.5156 13.9414C89.8177 13.7643 90.276 13.5768 90.8906 13.3789C91.5052 13.1706 92.1927 13.0664 92.9531 13.0664C94.0573 13.0664 95.0365 13.2383 95.8906 13.582C96.7448 13.9258 97.4688 14.4258 98.0625 15.082C98.6667 15.7383 99.125 16.5404 99.4375 17.4883C99.75 18.4362 99.9062 19.5091 99.9062 20.707C99.9062 21.7174 99.75 22.681 99.4375 23.5977C99.125 24.5039 98.651 25.3164 98.0156 26.0352C97.3802 26.7435 96.5833 27.3008 95.625 27.707C94.6667 28.1133 93.5312 28.3164 92.2188 28.3164C91.2396 28.3164 90.2917 28.1706 89.375 27.8789C88.4688 27.5872 87.651 27.1549 86.9219 26.582C86.2031 26.0091 85.625 25.3164 85.1875 24.5039C84.7604 23.681 84.5365 22.7435 84.5156 21.6914H88.9844C89.0469 22.3372 89.2135 22.8945 89.4844 23.3633C89.7656 23.8216 90.1354 24.1758 90.5938 24.4258C91.0521 24.6758 91.5885 24.8008 92.2031 24.8008C92.776 24.8008 93.2656 24.6914 93.6719 24.4727C94.0781 24.2539 94.4062 23.9518 94.6562 23.5664C94.9062 23.1706 95.0885 22.7122 95.2031 22.1914C95.3281 21.6602 95.3906 21.0872 95.3906 20.4727C95.3906 19.8581 95.3177 19.3008 95.1719 18.8008C95.026 18.3008 94.8021 17.8685 94.5 17.5039C94.1979 17.1393 93.8125 16.8581 93.3438 16.6602C92.8854 16.4622 92.349 16.3633 91.7344 16.3633C90.901 16.3633 90.2552 16.4935 89.7969 16.7539C89.349 17.0143 88.974 17.3112 88.6719 17.6445ZM108.469 5.25391V28.0039H103.781V5.25391H108.469ZM122.094 5.25391L113.078 16.4883L107.875 22.082L107.031 17.6445L110.547 12.832L116.344 5.25391H122.094ZM116.766 28.0039L110.062 17.4883L113.531 14.582L122.312 28.0039H116.766Z" fill="white"/>
<path d="M47.6892 53.0508H45.2127L45.2283 51.2227H47.6892C48.3038 51.2227 48.8221 51.0846 49.2439 50.8086C49.6658 50.5273 49.9835 50.1185 50.1971 49.582C50.4158 49.0456 50.5252 48.3971 50.5252 47.6367V47.082C50.5252 46.4987 50.4627 45.9857 50.3377 45.543C50.2179 45.1003 50.0382 44.7279 49.7986 44.4258C49.559 44.1237 49.2648 43.8971 48.9158 43.7461C48.5668 43.5898 48.1658 43.5117 47.7127 43.5117H45.1658V41.6758H47.7127C48.4731 41.6758 49.1684 41.806 49.7986 42.0664C50.434 42.3216 50.9835 42.6888 51.4471 43.168C51.9106 43.6471 52.2674 44.2201 52.5174 44.8867C52.7726 45.5482 52.9002 46.2852 52.9002 47.0977V47.6367C52.9002 48.444 52.7726 49.181 52.5174 49.8477C52.2674 50.5143 51.9106 51.0872 51.4471 51.5664C50.9887 52.0404 50.4392 52.4076 49.7986 52.668C49.1632 52.9232 48.4601 53.0508 47.6892 53.0508ZM46.5408 41.6758V53.0508H44.1971V41.6758H46.5408ZM48.5096 46.6211V48.0117H43.033V46.6211H48.5096ZM62.158 43.793H63.5017C63.5017 44.418 63.4054 44.9544 63.2127 45.4023C63.0252 45.8451 62.7257 46.1862 62.3142 46.4258C61.908 46.6602 61.3767 46.7773 60.7205 46.7773V45.8242C61.1111 45.8242 61.408 45.7409 61.6111 45.5742C61.8194 45.4076 61.9627 45.1732 62.0408 44.8711C62.1189 44.569 62.158 44.2096 62.158 43.793ZM54.5877 48.9102V48.7461C54.5877 48.1263 54.6762 47.556 54.8533 47.0352C55.0304 46.5091 55.2882 46.0534 55.6267 45.668C55.9705 45.2826 56.3898 44.9831 56.8846 44.7695C57.3793 44.5508 57.9471 44.4414 58.5877 44.4414C59.2283 44.4414 59.796 44.5508 60.2908 44.7695C60.7908 44.9831 61.2101 45.2826 61.5486 45.668C61.8924 46.0534 62.1528 46.5091 62.3299 47.0352C62.5069 47.556 62.5955 48.1263 62.5955 48.7461V48.9102C62.5955 49.5247 62.5069 50.0951 62.3299 50.6211C62.1528 51.1419 61.8924 51.5977 61.5486 51.9883C61.2101 52.3737 60.7934 52.6732 60.2986 52.8867C59.8038 53.1003 59.2387 53.207 58.6033 53.207C57.9627 53.207 57.3924 53.1003 56.8924 52.8867C56.3924 52.6732 55.9705 52.3737 55.6267 51.9883C55.2882 51.5977 55.0304 51.1419 54.8533 50.6211C54.6762 50.0951 54.5877 49.5247 54.5877 48.9102ZM56.8377 48.7461V48.9102C56.8377 49.2643 56.8689 49.5951 56.9314 49.9023C56.9991 50.2096 57.1007 50.4805 57.2361 50.7148C57.3767 50.944 57.559 51.1237 57.783 51.2539C58.0069 51.3841 58.2804 51.4492 58.6033 51.4492C58.9158 51.4492 59.1814 51.3841 59.4002 51.2539C59.6241 51.1237 59.8038 50.944 59.9392 50.7148C60.0747 50.4805 60.1736 50.2096 60.2361 49.9023C60.3038 49.5951 60.3377 49.2643 60.3377 48.9102V48.7461C60.3377 48.4023 60.3064 48.0794 60.2439 47.7773C60.1814 47.4701 60.0799 47.1992 59.9392 46.9648C59.8038 46.7253 59.6241 46.5378 59.4002 46.4023C59.1762 46.2669 58.9054 46.1992 58.5877 46.1992C58.27 46.1992 57.9991 46.2669 57.7752 46.4023C57.5564 46.5378 57.3767 46.7253 57.2361 46.9648C57.1007 47.1992 56.9991 47.4701 56.9314 47.7773C56.8689 48.0794 56.8377 48.4023 56.8377 48.7461ZM66.9627 46.4023V53.0508H64.7127V44.5977H66.8221L66.9627 46.4023ZM66.6346 48.5273H66.0252C66.0252 47.9023 66.1059 47.3398 66.2674 46.8398C66.4288 46.3346 66.6554 45.9049 66.9471 45.5508C67.2387 45.1914 67.5851 44.918 67.9861 44.7305C68.3924 44.5378 68.8455 44.4414 69.3455 44.4414C69.7413 44.4414 70.1033 44.4987 70.4314 44.6133C70.7596 44.7279 71.0408 44.9102 71.2752 45.1602C71.5148 45.4102 71.6971 45.7409 71.8221 46.1523C71.9523 46.5638 72.0174 47.0664 72.0174 47.6602V53.0508H69.7517V47.6523C69.7517 47.2773 69.6997 46.9857 69.5955 46.7773C69.4913 46.569 69.3377 46.4232 69.1346 46.3398C68.9366 46.2513 68.6918 46.207 68.4002 46.207C68.0981 46.207 67.8351 46.2669 67.6111 46.3867C67.3924 46.5065 67.2101 46.6732 67.0642 46.8867C66.9236 47.0951 66.8168 47.3398 66.7439 47.6211C66.671 47.9023 66.6346 48.2044 66.6346 48.5273ZM82.8533 44.5977V46.1914H77.9314V44.5977H82.8533ZM79.1502 42.5117H81.4002V50.5039C81.4002 50.7487 81.4314 50.9362 81.4939 51.0664C81.5616 51.1966 81.6606 51.2878 81.7908 51.3398C81.921 51.3867 82.0851 51.4102 82.283 51.4102C82.4236 51.4102 82.5486 51.4049 82.658 51.3945C82.7726 51.3789 82.8689 51.3633 82.9471 51.3477L82.9549 53.0039C82.7622 53.0664 82.5538 53.1159 82.3299 53.1523C82.1059 53.1888 81.8585 53.207 81.5877 53.207C81.0929 53.207 80.6606 53.1263 80.2908 52.9648C79.9262 52.7982 79.645 52.5326 79.4471 52.168C79.2491 51.8034 79.1502 51.3242 79.1502 50.7305V42.5117ZM92.8377 43.8555H94.1736C94.1736 44.4961 94.0799 45.0326 93.8924 45.4648C93.7049 45.8971 93.3898 46.2253 92.9471 46.4492C92.5096 46.668 91.9054 46.7773 91.1346 46.7773L91.1424 45.7305C91.6476 45.7305 92.02 45.6628 92.2596 45.5273C92.5043 45.3919 92.6606 45.1862 92.7283 44.9102C92.8012 44.6289 92.8377 44.2773 92.8377 43.8555ZM89.6346 51.0273V44.5977H91.8846V53.0508H89.7674L89.6346 51.0273ZM89.8846 49.293L90.5486 49.2773C90.5486 49.8398 90.4835 50.3633 90.3533 50.8477C90.2231 51.3268 90.0278 51.7435 89.7674 52.0977C89.5069 52.4466 89.1788 52.7201 88.783 52.918C88.3872 53.1107 87.921 53.207 87.3846 53.207C86.9731 53.207 86.5929 53.1497 86.2439 53.0352C85.9002 52.9154 85.6033 52.7305 85.3533 52.4805C85.1085 52.2253 84.9158 51.8997 84.7752 51.5039C84.6398 51.1029 84.5721 50.6211 84.5721 50.0586V44.5977H86.8221V50.0742C86.8221 50.3242 86.8507 50.5352 86.908 50.707C86.9705 50.8789 87.0564 51.0195 87.1658 51.1289C87.2752 51.2383 87.4028 51.3164 87.5486 51.3633C87.6997 51.4102 87.8663 51.4336 88.0486 51.4336C88.5122 51.4336 88.8767 51.3398 89.1424 51.1523C89.4132 50.9648 89.6033 50.7096 89.7127 50.3867C89.8273 50.0586 89.8846 49.694 89.8846 49.293ZM87.8299 41.2148L89.3689 43.6211H87.5252L85.3846 41.2148H87.8299ZM107.025 51.293V53.0508H99.2439V51.5508L102.924 47.6055C103.293 47.194 103.585 46.832 103.799 46.5195C104.012 46.2018 104.166 45.918 104.26 45.668C104.359 45.4128 104.408 45.1706 104.408 44.9414C104.408 44.5977 104.351 44.3034 104.236 44.0586C104.122 43.8086 103.952 43.6159 103.728 43.4805C103.51 43.3451 103.239 43.2773 102.916 43.2773C102.572 43.2773 102.275 43.3607 102.025 43.5273C101.78 43.694 101.593 43.9258 101.463 44.2227C101.338 44.5195 101.275 44.8555 101.275 45.2305H99.0174C99.0174 44.5534 99.1788 43.9336 99.5017 43.3711C99.8247 42.8034 100.28 42.3529 100.869 42.0195C101.457 41.681 102.155 41.5117 102.963 41.5117C103.76 41.5117 104.431 41.6419 104.978 41.9023C105.53 42.1576 105.947 42.5273 106.228 43.0117C106.515 43.4909 106.658 44.0638 106.658 44.7305C106.658 45.1055 106.598 45.4727 106.478 45.832C106.359 46.1862 106.187 46.5404 105.963 46.8945C105.744 47.2435 105.478 47.5977 105.166 47.957C104.853 48.3164 104.507 48.6888 104.127 49.0742L102.15 51.293H107.025ZM116.9 48.8008V50.5664H108.705L108.595 49.1992L113.338 41.6758H115.127L113.189 44.918L110.83 48.8008H116.9ZM115.611 41.6758V53.0508H113.361V41.6758H115.611ZM120.213 51.3398H120.361C120.986 51.3398 121.523 51.2643 121.97 51.1133C122.424 50.957 122.796 50.7331 123.088 50.4414C123.379 50.1497 123.595 49.793 123.736 49.3711C123.877 48.944 123.947 48.4596 123.947 47.918V45.7617C123.947 45.3503 123.905 44.9883 123.822 44.6758C123.744 44.3633 123.629 44.1055 123.478 43.9023C123.332 43.694 123.161 43.5378 122.963 43.4336C122.77 43.3294 122.556 43.2773 122.322 43.2773C122.072 43.2773 121.851 43.3398 121.658 43.4648C121.465 43.5846 121.301 43.7487 121.166 43.957C121.036 44.1654 120.934 44.4049 120.861 44.6758C120.793 44.9414 120.76 45.2201 120.76 45.5117C120.76 45.8034 120.793 46.082 120.861 46.3477C120.929 46.6081 121.03 46.8398 121.166 47.043C121.301 47.2409 121.47 47.3997 121.674 47.5195C121.877 47.6341 122.116 47.6914 122.392 47.6914C122.658 47.6914 122.895 47.6419 123.103 47.543C123.317 47.4388 123.497 47.3034 123.642 47.1367C123.793 46.9701 123.908 46.7852 123.986 46.582C124.069 46.3789 124.111 46.1732 124.111 45.9648L124.853 46.3711C124.853 46.7357 124.775 47.0951 124.619 47.4492C124.463 47.8034 124.244 48.1263 123.963 48.418C123.687 48.7044 123.366 48.9336 123.002 49.1055C122.637 49.2773 122.247 49.3633 121.83 49.3633C121.299 49.3633 120.827 49.2669 120.416 49.0742C120.004 48.8763 119.655 48.6055 119.369 48.2617C119.088 47.9128 118.874 47.5065 118.728 47.043C118.582 46.5794 118.51 46.0768 118.51 45.5352C118.51 44.9831 118.598 44.4648 118.775 43.9805C118.957 43.4961 119.215 43.069 119.549 42.6992C119.887 42.3294 120.291 42.0404 120.76 41.832C121.234 41.6185 121.76 41.5117 122.338 41.5117C122.916 41.5117 123.442 41.6237 123.916 41.8477C124.39 42.0716 124.796 42.3893 125.135 42.8008C125.473 43.207 125.734 43.694 125.916 44.2617C126.103 44.8294 126.197 45.4596 126.197 46.1523V46.9336C126.197 47.6732 126.116 48.3607 125.955 48.9961C125.799 49.6315 125.562 50.207 125.244 50.7227C124.931 51.2331 124.541 51.6706 124.072 52.0352C123.609 52.3997 123.069 52.6784 122.455 52.8711C121.84 53.0638 121.153 53.1602 120.392 53.1602H120.213V51.3398ZM130.885 41.6758V53.0508H128.541V41.6758H130.885ZM137.697 41.6758L133.189 47.293L130.588 50.0898L130.166 47.8711L131.924 45.4648L134.822 41.6758H137.697ZM135.033 53.0508L131.681 47.793L133.416 46.3398L137.806 53.0508H135.033Z" fill="white"/>
<g clip-path="url(#clip0_434_13914)">
<circle cx="20" cy="20" r="20" transform="matrix(-1 0 0 1 19.0007 14)" fill="#D9D9D9"/>
</g>
<path d="M28.2527 13.7461H29.2292C29.198 14.1185 29.0938 14.4505 28.9167 14.7422C28.7396 15.0312 28.4909 15.2591 28.1706 15.4258C27.8503 15.5924 27.461 15.6758 27.0027 15.6758C26.6511 15.6758 26.3347 15.6133 26.0534 15.4883C25.7722 15.3607 25.5313 15.181 25.3308 14.9492C25.1303 14.7148 24.9766 14.4323 24.8699 14.1016C24.7657 13.7708 24.7136 13.401 24.7136 12.9922V12.5195C24.7136 12.1107 24.767 11.7409 24.8738 11.4102C24.9831 11.0794 25.1394 10.7969 25.3425 10.5625C25.5456 10.3255 25.7891 10.1445 26.073 10.0195C26.3594 9.89453 26.681 9.83203 27.0378 9.83203C27.4909 9.83203 27.8738 9.91536 28.1863 10.082C28.4988 10.2487 28.7409 10.4792 28.9128 10.7734C29.0873 11.0677 29.1941 11.4049 29.2331 11.7852H28.2566C28.2305 11.5404 28.1732 11.3307 28.0847 11.1562C27.9988 10.9818 27.8712 10.849 27.7019 10.7578C27.5326 10.6641 27.3113 10.6172 27.0378 10.6172C26.8139 10.6172 26.6185 10.6589 26.4519 10.7422C26.2852 10.8255 26.1459 10.9479 26.0339 11.1094C25.9219 11.2708 25.8373 11.4701 25.78 11.707C25.7253 11.9414 25.698 12.2096 25.698 12.5117V12.9922C25.698 13.2786 25.7227 13.5391 25.7722 13.7734C25.8243 14.0052 25.9024 14.2044 26.0066 14.3711C26.1133 14.5378 26.2488 14.6667 26.4128 14.7578C26.5769 14.849 26.7735 14.8945 27.0027 14.8945C27.2813 14.8945 27.5066 14.8503 27.6784 14.7617C27.8529 14.6732 27.9844 14.5443 28.073 14.375C28.1641 14.2031 28.224 13.9935 28.2527 13.7461ZM24.9636 21.5312V21.4414C24.9636 21.1367 25.0079 20.8542 25.0964 20.5938C25.185 20.3307 25.3126 20.1029 25.4792 19.9102C25.6485 19.7148 25.8542 19.5638 26.0964 19.457C26.3412 19.3477 26.6172 19.293 26.9245 19.293C27.2344 19.293 27.5105 19.3477 27.7527 19.457C27.9975 19.5638 28.2045 19.7148 28.3738 19.9102C28.543 20.1029 28.6719 20.3307 28.7605 20.5938C28.849 20.8542 28.8933 21.1367 28.8933 21.4414V21.5312C28.8933 21.8359 28.849 22.1185 28.7605 22.3789C28.6719 22.6393 28.543 22.8672 28.3738 23.0625C28.2045 23.2552 27.9988 23.4062 27.7566 23.5156C27.5144 23.6224 27.2396 23.6758 26.9324 23.6758C26.6225 23.6758 26.3451 23.6224 26.1003 23.5156C25.8581 23.4062 25.6524 23.2552 25.4831 23.0625C25.3139 22.8672 25.185 22.6393 25.0964 22.3789C25.0079 22.1185 24.9636 21.8359 24.9636 21.5312ZM25.905 21.4414V21.5312C25.905 21.7214 25.9245 21.901 25.9636 22.0703C26.0027 22.2396 26.0639 22.388 26.1472 22.5156C26.2305 22.6432 26.3373 22.7435 26.4675 22.8164C26.5977 22.8893 26.7527 22.9258 26.9324 22.9258C27.1068 22.9258 27.2579 22.8893 27.3855 22.8164C27.5157 22.7435 27.6225 22.6432 27.7058 22.5156C27.7891 22.388 27.8503 22.2396 27.8894 22.0703C27.931 21.901 27.9519 21.7214 27.9519 21.5312V21.4414C27.9519 21.2539 27.931 21.0768 27.8894 20.9102C27.8503 20.7409 27.7878 20.5911 27.7019 20.4609C27.6185 20.3307 27.5118 20.2292 27.3816 20.1562C27.254 20.0807 27.1016 20.043 26.9245 20.043C26.7475 20.043 26.5938 20.0807 26.4636 20.1562C26.336 20.2292 26.2305 20.3307 26.1472 20.4609C26.0639 20.5911 26.0027 20.7409 25.9636 20.9102C25.9245 21.0768 25.905 21.2539 25.905 21.4414ZM27.7292 30.6016V27.3711H28.6745V31.5977H27.7839L27.7292 30.6016ZM27.862 29.7227L28.1784 29.7148C28.1784 29.9987 28.1472 30.2604 28.0847 30.5C28.0222 30.737 27.9258 30.944 27.7956 31.1211C27.6654 31.2956 27.4988 31.4323 27.2956 31.5312C27.0925 31.6276 26.849 31.6758 26.5652 31.6758C26.3594 31.6758 26.1706 31.6458 25.9988 31.5859C25.8269 31.526 25.6784 31.4336 25.5534 31.3086C25.431 31.1836 25.336 31.0208 25.2683 30.8203C25.2006 30.6198 25.1667 30.3802 25.1667 30.1016V27.3711H26.1081V30.1094C26.1081 30.263 26.1264 30.3919 26.1628 30.4961C26.1993 30.5977 26.2488 30.6797 26.3113 30.7422C26.3738 30.8047 26.4467 30.849 26.53 30.875C26.6133 30.901 26.7019 30.9141 26.7956 30.9141C27.0639 30.9141 27.2748 30.862 27.4284 30.7578C27.5847 30.651 27.6954 30.5078 27.7605 30.3281C27.8282 30.1484 27.862 29.9466 27.862 29.7227ZM26.1081 36.1836V41.2227H25.1667V35.3711H26.0339L26.1081 36.1836ZM28.862 37.4453V37.5273C28.862 37.8346 28.8256 38.1198 28.7527 38.3828C28.6824 38.6432 28.5769 38.8711 28.4363 39.0664C28.2982 39.2591 28.1277 39.4089 27.9245 39.5156C27.7214 39.6224 27.487 39.6758 27.2214 39.6758C26.9584 39.6758 26.7279 39.6276 26.53 39.5312C26.3347 39.4323 26.1693 39.293 26.0339 39.1133C25.8985 38.9336 25.7891 38.7227 25.7058 38.4805C25.6251 38.2357 25.5678 37.9674 25.5339 37.6758V37.3594C25.5678 37.0495 25.6251 36.7682 25.7058 36.5156C25.7891 36.263 25.8985 36.0456 26.0339 35.8633C26.1693 35.681 26.3347 35.5404 26.53 35.4414C26.7253 35.3424 26.9532 35.293 27.2136 35.293C27.4792 35.293 27.7149 35.3451 27.9206 35.4492C28.1264 35.5508 28.2995 35.6966 28.4402 35.8867C28.5808 36.0742 28.6863 36.3008 28.7566 36.5664C28.8269 36.8294 28.862 37.1224 28.862 37.4453ZM27.9206 37.5273V37.4453C27.9206 37.25 27.9024 37.069 27.8659 36.9023C27.8295 36.7331 27.7722 36.5846 27.6941 36.457C27.6159 36.3294 27.5157 36.2305 27.3933 36.1602C27.2735 36.0872 27.129 36.0508 26.9597 36.0508C26.793 36.0508 26.6498 36.0794 26.53 36.1367C26.4102 36.1914 26.31 36.2682 26.2292 36.3672C26.1485 36.4661 26.086 36.582 26.0417 36.7148C25.9975 36.8451 25.9662 36.987 25.948 37.1406V37.8984C25.9792 38.0859 26.0326 38.2578 26.1081 38.4141C26.1837 38.5703 26.2904 38.6953 26.4284 38.7891C26.5691 38.8802 26.7488 38.9258 26.9675 38.9258C27.1368 38.9258 27.2813 38.8893 27.4011 38.8164C27.5209 38.7435 27.6185 38.6432 27.6941 38.5156C27.7722 38.3854 27.8295 38.2357 27.8659 38.0664C27.9024 37.8971 27.9206 37.7174 27.9206 37.5273ZM24.9636 45.5312V45.4414C24.9636 45.1367 25.0079 44.8542 25.0964 44.5938C25.185 44.3307 25.3126 44.1029 25.4792 43.9102C25.6485 43.7148 25.8542 43.5638 26.0964 43.457C26.3412 43.3477 26.6172 43.293 26.9245 43.293C27.2344 43.293 27.5105 43.3477 27.7527 43.457C27.9975 43.5638 28.2045 43.7148 28.3738 43.9102C28.543 44.1029 28.6719 44.3307 28.7605 44.5938C28.849 44.8542 28.8933 45.1367 28.8933 45.4414V45.5312C28.8933 45.8359 28.849 46.1185 28.7605 46.3789C28.6719 46.6393 28.543 46.8672 28.3738 47.0625C28.2045 47.2552 27.9988 47.4062 27.7566 47.5156C27.5144 47.6224 27.2396 47.6758 26.9324 47.6758C26.6225 47.6758 26.3451 47.6224 26.1003 47.5156C25.8581 47.4062 25.6524 47.2552 25.4831 47.0625C25.3139 46.8672 25.185 46.6393 25.0964 46.3789C25.0079 46.1185 24.9636 45.8359 24.9636 45.5312ZM25.905 45.4414V45.5312C25.905 45.7214 25.9245 45.901 25.9636 46.0703C26.0027 46.2396 26.0639 46.388 26.1472 46.5156C26.2305 46.6432 26.3373 46.7435 26.4675 46.8164C26.5977 46.8893 26.7527 46.9258 26.9324 46.9258C27.1068 46.9258 27.2579 46.8893 27.3855 46.8164C27.5157 46.7435 27.6225 46.6432 27.7058 46.5156C27.7891 46.388 27.8503 46.2396 27.8894 46.0703C27.931 45.901 27.9519 45.7214 27.9519 45.5312V45.4414C27.9519 45.2539 27.931 45.0768 27.8894 44.9102C27.8503 44.7409 27.7878 44.5911 27.7019 44.4609C27.6185 44.3307 27.5118 44.2292 27.3816 44.1562C27.254 44.0807 27.1016 44.043 26.9245 44.043C26.7475 44.043 26.5938 44.0807 26.4636 44.1562C26.336 44.2292 26.2305 44.3307 26.1472 44.4609C26.0639 44.5911 26.0027 44.7409 25.9636 44.9102C25.9245 45.0768 25.905 45.2539 25.905 45.4414ZM26.1199 52.2734V55.5977H25.1784V51.3711H26.0652L26.1199 52.2734ZM25.9519 53.3281L25.6472 53.3242C25.6498 53.0247 25.6915 52.75 25.7722 52.5C25.8555 52.25 25.9701 52.0352 26.1159 51.8555C26.2644 51.6758 26.4415 51.5378 26.6472 51.4414C26.8529 51.3424 27.0821 51.293 27.3347 51.293C27.5378 51.293 27.7214 51.3216 27.8855 51.3789C28.0521 51.4336 28.1941 51.5234 28.3113 51.6484C28.431 51.7734 28.5222 51.9362 28.5847 52.1367C28.6472 52.3346 28.6784 52.5781 28.6784 52.8672V55.5977H27.7331V52.8633C27.7331 52.6602 27.7032 52.5 27.6433 52.3828C27.586 52.263 27.5014 52.1784 27.3894 52.1289C27.28 52.0768 27.1433 52.0508 26.9792 52.0508C26.8178 52.0508 26.6732 52.0846 26.5456 52.1523C26.418 52.2201 26.31 52.3125 26.2214 52.4297C26.1355 52.5469 26.0691 52.6823 26.0222 52.8359C25.9753 52.9896 25.9519 53.1536 25.9519 53.3281Z" fill="#818181"/>
<line x1="42.3433" y1="1.50781" x2="42.3433" y2="8.78054" stroke="black"/>
<line x1="42.3433" y1="10.5977" x2="42.3433" y2="17.8704" stroke="black"/>
<line x1="42.3433" y1="19.6875" x2="42.3433" y2="26.9602" stroke="black"/>
<line x1="42.3433" y1="28.7812" x2="42.3433" y2="36.054" stroke="black"/>
<line x1="42.3433" y1="37.8711" x2="42.3433" y2="45.1438" stroke="black"/>
<line x1="42.3433" y1="46.9609" x2="42.3433" y2="54.2337" stroke="black"/>
<line x1="42.3433" y1="56.0508" x2="42.3433" y2="63.3235" stroke="black"/>
<defs>
<clipPath id="clip0_434_13914">
<rect width="18" height="40" fill="white" transform="matrix(-1 0 0 1 19.0007 14)"/>
</clipPath>
</defs>
</svg>
